<mxfile host="app.diagrams.net" modified="2024-04-14T09:25:25.556Z" agent="Mozilla/5.0 (Windows NT 10.0; Win64; x64) AppleWebKit/537.36 (KHTML, like Gecko) Chrome/121.0.0.0 Safari/537.36" etag="QbVDeCNJPwmnX-2OmX1q" version="24.2.2" type="device">
  <diagram name="Strona-1" id="wrZPjmFFughsJgDpAxGD">
    <mxGraphModel dx="1050" dy="530" grid="1" gridSize="10" guides="1" tooltips="1" connect="1" arrows="1" fold="1" page="1" pageScale="1" pageWidth="827" pageHeight="1169" math="0" shadow="0">
      <root>
        <mxCell id="0" />
        <mxCell id="1" parent="0" />
        <mxCell id="eoIHleNux426bEias4a9-1" value="" style="whiteSpace=wrap;html=1;aspect=fixed;" vertex="1" parent="1">
          <mxGeometry x="234" y="60" width="380" height="380" as="geometry" />
        </mxCell>
        <mxCell id="eoIHleNux426bEias4a9-2" value="" style="endArrow=none;html=1;rounded=0;exitX=1.001;exitY=0.12;exitDx=0;exitDy=0;exitPerimeter=0;entryX=0.001;entryY=0.124;entryDx=0;entryDy=0;entryPerimeter=0;" edge="1" parent="1" source="eoIHleNux426bEias4a9-1" target="eoIHleNux426bEias4a9-1">
          <mxGeometry width="50" height="50" relative="1" as="geometry">
            <mxPoint x="400" y="230" as="sourcePoint" />
            <mxPoint x="450" y="180" as="targetPoint" />
          </mxGeometry>
        </mxCell>
        <mxCell id="eoIHleNux426bEias4a9-3" value="Logo" style="rounded=0;whiteSpace=wrap;html=1;" vertex="1" parent="1">
          <mxGeometry x="259" y="70" width="330" height="30" as="geometry" />
        </mxCell>
        <mxCell id="eoIHleNux426bEias4a9-5" value="e-mail" style="rounded=0;whiteSpace=wrap;html=1;" vertex="1" parent="1">
          <mxGeometry x="335" y="200" width="180" height="40" as="geometry" />
        </mxCell>
        <mxCell id="eoIHleNux426bEias4a9-6" value="hasło" style="rounded=0;whiteSpace=wrap;html=1;" vertex="1" parent="1">
          <mxGeometry x="334" y="270" width="180" height="40" as="geometry" />
        </mxCell>
        <mxCell id="eoIHleNux426bEias4a9-8" value="!" style="ellipse;whiteSpace=wrap;html=1;aspect=fixed;" vertex="1" parent="1">
          <mxGeometry x="520" y="280" width="20" height="20" as="geometry" />
        </mxCell>
        <mxCell id="eoIHleNux426bEias4a9-9" value="Zaloguj się" style="rounded=1;whiteSpace=wrap;html=1;" vertex="1" parent="1">
          <mxGeometry x="367.5" y="340" width="115" height="20" as="geometry" />
        </mxCell>
        <mxCell id="eoIHleNux426bEias4a9-10" style="edgeStyle=orthogonalEdgeStyle;rounded=0;orthogonalLoop=1;jettySize=auto;html=1;exitX=0.5;exitY=1;exitDx=0;exitDy=0;" edge="1" parent="1" source="eoIHleNux426bEias4a9-9" target="eoIHleNux426bEias4a9-9">
          <mxGeometry relative="1" as="geometry" />
        </mxCell>
      </root>
    </mxGraphModel>
  </diagram>
</mxfile>
